<?xml version="1.0" encoding="UTF-8" standalone="no"?>
<!-- Uploaded to: SVG Repo, www.svgrepo.com, Generator: SVG Repo Mixer Tools -->

<svg
   version="1.1"
   id="Capa_1"
   viewBox="0 0 150 150"
   xml:space="preserve"
   sodipodi:docname="truck-svgrepo-com.svg"
   width="150"
   height="150"
   inkscape:version="1.2.1 (9c6d41e, 2022-07-14)"
   xmlns:inkscape="http://www.inkscape.org/namespaces/inkscape"
   xmlns:sodipodi="http://sodipodi.sourceforge.net/DTD/sodipodi-0.dtd"
   xmlns="http://www.w3.org/2000/svg"
   xmlns:svg="http://www.w3.org/2000/svg"><defs
   id="defs213" /><sodipodi:namedview
   id="namedview211"
   pagecolor="#505050"
   bordercolor="#ffffff"
   borderopacity="1"
   inkscape:showpageshadow="0"
   inkscape:pageopacity="0"
   inkscape:pagecheckerboard="1"
   inkscape:deskcolor="#505050"
   showgrid="false"
   inkscape:zoom="2.8691788"
   inkscape:cx="89.746935"
   inkscape:cy="105.7794"
   inkscape:window-width="1920"
   inkscape:window-height="1027"
   inkscape:window-x="0"
   inkscape:window-y="25"
   inkscape:window-maximized="1"
   inkscape:current-layer="Capa_1" />
<g
   id="g208"
   transform="matrix(0.2734375,0,0,0.2734375,5,5)">
	<g
   id="g134">
		<path
   style="fill:#5c546a"
   d="M 472,344 H 40 c -8.837,0 -16,-7.163 -16,-16 v -16 h 448 z"
   id="path132" />
	</g>
	<g
   id="g138">
		<path
   style="fill:#8a8895"
   d="M 168,144 H 48 c -4.422,0 -8,3.582 -8,8 v 96 c 0,4.422 3.578,8 8,8 h 120 c 4.422,0 8,-3.578 8,-8 v -96 c 0,-4.418 -3.578,-8 -8,-8 z"
   id="path136" />
	</g>
	<g
   id="g142">
		<path
   style="fill:#ffd100"
   d="M 264,120 H 144 c -4.422,0 -8,3.582 -8,8 v 96 c 0,4.422 3.578,8 8,8 h 120 c 4.422,0 8,-3.578 8,-8 v -96 c 0,-4.418 -3.578,-8 -8,-8 z"
   id="path140" />
	</g>
	<g
   id="g146">
		<path
   style="fill:#e7001e"
   d="m 389.898,314.594 -88,-96 C 300.383,216.938 298.242,216 296,216 H 16 c -8.82,0 -16,7.18 -16,16 v 64 c 0,17.648 14.352,32 32,32 h 352 c 3.172,0 6.047,-1.875 7.32,-4.781 1.282,-2.899 0.719,-6.289 -1.422,-8.625 z"
   id="path144" />
	</g>
	<g
   id="g150">
		<path
   style="fill:#ff4f19"
   d="M 485.727,216 421.202,203.453 399.759,143.758 C 393.344,129.324 379,120 363.203,120 H 312 c -13.234,0 -24,10.766 -24,24 v 136 c 0,26.469 21.531,48 48,48 h 152 c 13.234,0 24,-10.766 24,-24 v -64 c 0,-15.469 -11.047,-21.227 -26.273,-24 z"
   id="path148" />
	</g>
	<g
   id="g154">
		<path
   style="fill:#ffd100"
   d="m 512,264 h -28 c -6.627,0 -12,-5.373 -12,-12 v 0 c 0,-6.627 5.373,-12 12,-12 h 28"
   id="path152" />
	</g>
	<g
   id="g160">
		<g
   id="g158">
			<rect
   x="96"
   y="144"
   style="fill:#5c546a"
   width="16"
   height="72"
   id="rect156" />
		</g>
	</g>
	<g
   id="g166">
		<g
   id="g164">
			<rect
   x="64"
   y="144"
   style="fill:#5c546a"
   width="16"
   height="72"
   id="rect162" />
		</g>
	</g>
	<g
   id="g170">
		<path
   style="fill:#ff4f19"
   d="m 0,288 c 13.255,0 24,-10.745 24,-24 v -24 c 0,-4.418 -3.582,-8 -8,-8 H 0 Z"
   id="path168" />
	</g>
	<g
   id="g180">
		<g
   id="g174">
			<circle
   style="fill:#5c546a"
   cx="112.001"
   cy="336"
   r="56"
   id="circle172" />
		</g>
		<g
   id="g178">
			<circle
   style="fill:#8a8895"
   cx="112.001"
   cy="336"
   r="32"
   id="circle176" />
		</g>
	</g>
	<g
   id="g190">
		<g
   id="g184">
			<circle
   style="fill:#5c546a"
   cx="432"
   cy="336"
   r="56"
   id="circle182" />
		</g>
		<g
   id="g188">
			<circle
   style="fill:#8a8895"
   cx="432"
   cy="336"
   r="32"
   id="circle186" />
		</g>
	</g>
	<g
   id="g194">
		<path
   style="fill:#5c546a"
   d="m 399.758,143.758 c -1.25,-2.813 -2.879,-5.364 -4.684,-7.758 H 312 v 51.453 c 0,8.836 7.164,16 16,16 h 93.201 z"
   id="path192" />
	</g>
	<g
   id="g198">
		<rect
   x="496"
   y="240"
   style="fill:#ffffff"
   width="16"
   height="24"
   id="rect196" />
	</g>
	<g
   id="g202">
		<rect
   x="136"
   y="144"
   style="fill:#ff9500"
   width="136"
   height="16"
   id="rect200" />
	</g>
	<g
   id="g206">
		<rect
   x="136"
   y="184"
   style="fill:#ff9500"
   width="136"
   height="16"
   id="rect204" />
	</g>
</g>
</svg>
